# xmcd
#
# Track frame offsets:
#	150
#	18046
#	39525
#	49958
#	65490
#	80523
#	97306
#	109701
#	127666
#	143790
#	156033
#	173163
#	185479
#	200150
#	217868
#	234862
#	246652
#	263833
#	276129
#	292260
#	292570
#	297218
#	297520
#	302343
#	303049
#	304897
#	305269
#	307947
#	308306
#	310320
#	310628
#
# Disc length: 4188
#
# Revision: 1
# Processed by: cddbd v1.5.1PL0 Copyright (c) Steve Scherf et al.
# Submitted via: VisiTrax 2.9.5.180 - For more info visit www.synapsa.com
# Normalized: r0:DSETVAR1
#
DISCID=b2105a1f
DTITLE=Various Artist - CDX 193 August 1998
DYEAR=1998
DGENRE=
TTITLE0=Wilkinsons - 26c
TTITLE1=Bruce Robinson - Angry all the times
TTITLE2=Brad Hawkins - Come back to me blues
TTITLE3=Tim Briggs - Everything she needs
TTITLE4=Matt King - Five o'clock hero
TTITLE5=Shania Twain - Honey, I'm home
TTITLE6=Danni Leigh - If the jukebox took teardrops
TTITLE7=Alan Jackson - I'll go on loving you
TTITLE8=Ty Herndon - It must be love
TTITLE9=Rick Trevino - Only lonely me
TTITLE10=Collin Raye - Someone you used to know
TTITLE11=Trini Triggs - Straight tequila
TTITLE12=Blackhawk - There you have it
TTITLE13=Heather Myles - True love
TTITLE14=Dixie Chicks - Wide open spaces
TTITLE15=BR5-49 - Wild one
TTITLE16=Graham Brown - Wine into water
TTITLE17=Clay Walker - You're beginning to get to me
TTITLE18=Terri Clark - You're easy on the eyes
TTITLE19=Alan Jackson - Interview
TTITLE20=Alan Jackson - Interview
TTITLE21=Alan Jackson - Interview
TTITLE22=Alan Jackson - Interview
TTITLE23=Alan Jackson - Interview
TTITLE24=Alan Jackson - Interview
TTITLE25=Alan Jackson - Interview
TTITLE26=Alan Jackson - Interview
TTITLE27=Alan Jackson - Interview
TTITLE28=Alan Jackson - Interview
TTITLE29=Alan Jackson - Interview
TTITLE30=Alan JacksonAlan Jackson - InterviewInterview
EXTD=
EXTT0=
EXTT1=
EXTT2=
EXTT3=
EXTT4=
EXTT5=
EXTT6=
EXTT7=
EXTT8=
EXTT9=
EXTT10=
EXTT11=
EXTT12=
EXTT13=
EXTT14=
EXTT15=
EXTT16=
EXTT17=
EXTT18=
EXTT19=
EXTT20=
EXTT21=
EXTT22=
EXTT23=
EXTT24=
EXTT25=
EXTT26=
EXTT27=
EXTT28=
EXTT29=
EXTT30=
PLAYORDER=
